<svg width="490" height="235" viewBox="0 0 490 235" fill="none" xmlns="http://www.w3.org/2000/svg">
<g style="mix-blend-mode:luminosity">
<path opacity="0.5" fill-rule="evenodd" clip-rule="evenodd" d="M259.289 62.0319C267.159 68.6717 277.104 74.3242 288.507 78.1589C299.767 81.9456 310.967 83.4922 321.146 83.0333L330.934 229.463L107.063 227.254L259.289 62.0319Z" fill="url(#paint0_linear_5602_6105)"/>
<g opacity="0.8">
<path d="M325.78 101.781C326.347 101.951 326.913 102.008 327.537 101.951C329.746 101.724 331.332 99.685 331.049 97.5324L328.839 78.4989C328.613 76.2896 326.574 74.7035 324.421 74.9867C322.212 75.2133 320.626 77.2526 320.909 79.4052L323.118 98.4387C323.288 100.082 324.364 101.328 325.78 101.781Z" fill="url(#paint1_linear_5602_6105)"/>
<path d="M327.536 106.086C332.041 106.086 335.693 102.434 335.693 97.9285C335.693 93.4234 332.041 89.7712 327.536 89.7712C323.031 89.7712 319.378 93.4234 319.378 97.9285C319.378 102.434 323.031 106.086 327.536 106.086Z" fill="url(#paint2_linear_5602_6105)"/>
<path d="M244.21 74.3069C243.643 74.137 243.134 73.7971 242.737 73.4006C241.151 71.8711 241.094 69.3219 242.624 67.7358L255.879 53.9139C257.409 52.3277 259.958 52.2711 261.544 53.8006C263.13 55.33 263.187 57.8792 261.657 59.4653L248.402 73.2873C247.269 74.4202 245.626 74.7601 244.21 74.3069Z" fill="url(#paint3_linear_5602_6105)"/>
<path d="M245.172 78.329C249.677 78.329 253.329 74.6769 253.329 70.1718C253.329 65.6666 249.677 62.0145 245.172 62.0145C240.667 62.0145 237.015 65.6666 237.015 70.1718C237.015 74.6769 240.667 78.329 245.172 78.329Z" fill="url(#paint4_linear_5602_6105)"/>
<path d="M293.72 65.9236C275.876 59.919 259.618 53.4612 246.249 47.2866C254.237 60.0889 269.305 71.7017 288.508 78.1595C307.542 84.5606 326.406 84.5606 340.454 79.2924C326.632 76.1202 310.601 71.5884 293.72 65.9236Z" fill="url(#paint5_linear_5602_6105)"/>
<path d="M385.431 80.8781C382.769 88.8087 341.19 81.9544 292.643 65.5833C244.096 49.2122 206.765 29.4423 209.484 21.5116C212.147 13.581 253.726 20.4353 302.273 36.8064C350.82 53.1775 388.094 72.9475 385.431 80.8781Z" fill="url(#paint6_linear_5602_6105)"/>
<path opacity="0.2" d="M293.719 62.2979C248.458 47.0597 213.11 28.9326 210.617 20.0956C210.051 20.4921 209.711 21.0019 209.541 21.5118C206.879 29.4424 244.096 49.1557 292.7 65.5268C341.303 81.8979 382.826 88.7522 385.488 80.8216C385.658 80.2551 385.658 79.6886 385.488 79.0089C378.067 84.5603 338.924 77.536 293.719 62.2979Z" fill="white"/>
<path d="M300.8 44.9071C323.346 52.4979 345.268 55.5568 345.268 55.5568C349.347 32.8979 336.374 10.0123 313.885 2.47822C291.34 -5.11253 267.095 5.31059 256.672 25.9302C256.672 25.8736 278.254 37.2597 300.8 44.9071Z" fill="url(#paint7_linear_5602_6105)"/>
</g>
<path d="M245 362.249C380.31 362.249 490 323.42 490 275.522C490 227.624 380.31 188.795 245 188.795C109.69 188.795 0 227.624 0 275.522C0 323.42 109.69 362.249 245 362.249Z" fill="url(#paint8_linear_5602_6105)"/>
<path fill-rule="evenodd" clip-rule="evenodd" d="M83.6118 178.542C84.8014 178.372 85.9344 179.165 86.1043 180.355C86.1082 180.388 86.1134 180.43 86.1197 180.481C86.2971 181.921 87.3379 190.37 83.7818 194.856C82.4789 196.386 80.6662 197.236 78.6268 197.406L78.3893 211.935C76.7123 212.486 75.0572 213.045 73.4244 213.612L73.302 208.225C71.1494 208.055 69.3933 207.206 68.0338 205.619C64.1251 201.088 65.3713 192.251 65.5413 191.231C65.7679 190.041 66.8442 189.248 68.0338 189.418C69.2234 189.588 70.0164 190.721 69.8465 191.911C69.5066 193.893 69.1101 200.238 71.3193 202.787C71.7725 203.354 72.3956 203.693 73.132 203.807L72.5656 180.921C72.5089 179.165 73.9251 177.692 75.6812 177.692C77.4373 177.692 78.8534 179.108 78.7968 180.865L78.5702 192.93C79.3066 192.817 79.8731 192.477 80.3263 191.911C82.4789 189.362 82.0823 183.074 81.7991 181.034C81.6292 179.845 82.4222 178.712 83.6118 178.542Z" fill="#6F718B"/>
<path fill-rule="evenodd" clip-rule="evenodd" d="M399.422 147.046C401.291 146.763 403.047 148.009 403.331 149.879C403.557 151.465 405.54 165.4 399.479 172.538C397.439 174.917 394.663 176.333 391.435 176.56L390.926 205.85C388.406 205.188 385.85 204.542 383.257 203.914L382.994 193.554C379.709 193.384 376.876 191.968 374.78 189.532C368.719 182.394 370.702 168.516 370.928 166.93C371.211 165.06 372.968 163.814 374.837 164.097C376.706 164.38 377.953 166.136 377.669 168.006C377.159 171.178 376.536 181.091 379.992 185.113C380.785 185.963 381.691 186.53 382.881 186.699L381.974 150.785C381.918 148.009 384.127 145.743 386.903 145.743C389.679 145.743 391.888 147.953 391.831 150.728L391.491 169.649C392.624 169.422 393.531 168.912 394.267 168.062C397.722 164.041 397.099 154.127 396.589 150.955C396.306 149.086 397.552 147.33 399.422 147.046Z" fill="#6F718B"/>
<path d="M258.481 133.677C258.085 133.111 257.292 132.941 256.669 133.337C256.102 133.734 255.932 134.527 256.329 135.15C257.009 136.17 258.821 139.512 258.311 141.438C258.198 141.834 257.972 142.174 257.632 142.457L254.629 135.83C254.176 134.867 253.1 134.47 252.137 134.923C251.174 135.377 250.777 136.509 251.231 137.472L257.348 149.708C256.895 149.822 256.499 149.822 256.102 149.595C254.29 148.745 252.873 145.233 252.533 144.044C252.307 143.364 251.627 142.967 250.947 143.137C250.268 143.364 249.871 144.044 250.041 144.723C250.211 145.29 251.797 150.445 255.026 151.918C256.159 152.427 257.348 152.427 258.538 151.974L261.201 157.299L263.75 156.109L258.651 144.723C259.728 144.1 260.464 143.194 260.804 142.004C261.767 138.662 258.821 134.187 258.481 133.677Z" fill="#BDBDBD"/>
<path d="M209.935 164.664C209.935 165.513 209.198 166.25 208.349 166.25C207.499 166.25 206.763 165.513 206.763 164.664C206.763 163.814 207.499 163.078 208.349 163.078C209.198 163.078 209.935 163.757 209.935 164.664Z" fill="#BDBDBD"/>
<path d="M283.521 136.566C283.521 137.246 282.954 137.756 282.331 137.756C281.651 137.756 281.142 137.189 281.142 136.566C281.142 135.886 281.708 135.377 282.331 135.377C282.954 135.377 283.521 135.886 283.521 136.566Z" fill="#BDBDBD"/>
</g>
<defs>
<linearGradient id="paint0_linear_5602_6105" x1="264.26" y1="-17.8443" x2="259.731" y2="202.357" gradientUnits="userSpaceOnUse">
<stop offset="0.00134342" stop-color="#70707B"/>
<stop offset="1" stop-color="#70707B" stop-opacity="0"/>
</linearGradient>
<linearGradient id="paint1_linear_5602_6105" x1="326.851" y1="100.34" x2="323.939" y2="60.6905" gradientUnits="userSpaceOnUse">
<stop stop-color="#70707B"/>
<stop offset="1" stop-color="#70707B"/>
</linearGradient>
<linearGradient id="paint2_linear_5602_6105" x1="332.467" y1="108.11" x2="322.645" y2="87.8963" gradientUnits="userSpaceOnUse">
<stop stop-color="#70707B"/>
<stop offset="1" stop-color="#70707B"/>
</linearGradient>
<linearGradient id="paint3_linear_5602_6105" x1="248.649" y1="67.0323" x2="263.891" y2="52.0347" gradientUnits="userSpaceOnUse">
<stop stop-color="#70707B"/>
<stop offset="1" stop-color="#70707B"/>
</linearGradient>
<linearGradient id="paint4_linear_5602_6105" x1="239.46" y1="74.7761" x2="251.378" y2="65.2113" gradientUnits="userSpaceOnUse">
<stop stop-color="#70707B"/>
<stop offset="1" stop-color="#70707B"/>
</linearGradient>
<linearGradient id="paint5_linear_5602_6105" x1="295.028" y1="57.3458" x2="283.27" y2="99.2948" gradientUnits="userSpaceOnUse">
<stop stop-color="#70707B"/>
<stop offset="1" stop-color="#70707B"/>
</linearGradient>
<linearGradient id="paint6_linear_5602_6105" x1="281.061" y1="99.772" x2="298.912" y2="46.8265" gradientUnits="userSpaceOnUse">
<stop stop-color="#70707B"/>
<stop offset="1" stop-color="#70707B"/>
</linearGradient>
<linearGradient id="paint7_linear_5602_6105" x1="291.374" y1="-1.44747" x2="317.23" y2="88.331" gradientUnits="userSpaceOnUse">
<stop stop-color="#70707B"/>
<stop offset="0.193" stop-color="#70707B"/>
<stop offset="0.7095" stop-color="#BDBDBD"/>
<stop offset="1" stop-color="#6F718B"/>
</linearGradient>
<linearGradient id="paint8_linear_5602_6105" x1="245.008" y1="145" x2="245.008" y2="235.5" gradientUnits="userSpaceOnUse">
<stop stop-opacity="0.58"/>
<stop offset="1" stop-color="white" stop-opacity="0"/>
</linearGradient>
</defs>
</svg>
