<svg width="124" height="110" viewBox="0 0 124 110" fill="none" xmlns="http://www.w3.org/2000/svg">
<g id="Search Error (Line)">
<path id="Vector" opacity="0.1" d="M25.3649 109.22H97.9542C99.9493 109.225 101.873 108.471 103.338 107.109C109.453 101.414 114.345 94.5196 117.714 86.8512C121.082 79.1829 122.855 70.9024 122.924 62.519C123.237 28.431 95.6933 0.382747 61.8082 0.302299C27.9038 0.221806 0.394083 27.8478 0.394083 61.9377C0.384404 70.4224 2.121 78.8173 5.49454 86.5936C8.86807 94.37 13.8055 101.359 19.9958 107.122C21.4586 108.477 23.3763 109.227 25.3649 109.22Z" fill="#8271F0"/>
<path id="Vector_2" d="M80.8031 108.954H26.1134C25.4489 108.954 24.791 108.824 24.1771 108.569C23.5633 108.315 23.0055 107.942 22.5357 107.472C22.0658 107.003 21.6931 106.445 21.4389 105.831C21.1846 105.217 21.0537 104.559 21.0537 103.895V16.6051C21.0537 15.2632 21.5868 13.9762 22.5357 13.0273C23.4845 12.0785 24.7715 11.5454 26.1134 11.5454H63.6394L85.8628 33.7688V103.895C85.8628 105.237 85.3297 106.524 84.3809 107.472C83.432 108.421 82.145 108.954 80.8031 108.954Z" fill="white"/>
<path id="Vector (Stroke)" fill-rule="evenodd" clip-rule="evenodd" d="M26.1137 12.3965C24.9975 12.3965 23.927 12.8399 23.1377 13.6292C22.3484 14.4185 21.905 15.489 21.905 16.6052V103.895C21.905 104.448 22.0138 104.995 22.2253 105.506C22.4368 106.016 22.7469 106.48 23.1377 106.871C23.5285 107.262 23.9925 107.572 24.5031 107.783C25.0137 107.995 25.561 108.104 26.1137 108.104H80.8035C81.9197 108.104 82.9902 107.66 83.7795 106.871C84.5688 106.082 85.0122 105.011 85.0122 103.895V34.1215L63.2872 12.3965H26.1137ZM21.9343 12.4258C23.0427 11.3174 24.5461 10.6946 26.1137 10.6946H63.6397C63.8654 10.6946 64.0818 10.7843 64.2414 10.9439L86.4648 33.1673C86.6244 33.3269 86.7141 33.5433 86.7141 33.769V103.895C86.7141 105.462 86.0913 106.966 84.9829 108.074C83.8744 109.183 82.3711 109.805 80.8035 109.805H26.1137C25.3375 109.805 24.5689 109.653 23.8518 109.356C23.1347 109.059 22.4831 108.623 21.9343 108.074C21.3854 107.525 20.9501 106.874 20.653 106.157C20.356 105.44 20.2031 104.671 20.2031 103.895V16.6052C20.2031 15.0376 20.8259 13.5342 21.9343 12.4258Z" fill="#E4E4E7"/>
<path id="Vector_3" d="M91.06 97.9764H36.3702C35.7058 97.9764 35.0478 97.8456 34.434 97.5913C33.8201 97.337 33.2623 96.9643 32.7925 96.4945C32.3227 96.0247 31.95 95.4669 31.6957 94.853C31.4414 94.2392 31.3105 93.5812 31.3105 92.9168V5.6271C31.3105 4.96266 31.4414 4.30472 31.6957 3.69085C31.95 3.07699 32.3227 2.51922 32.7925 2.04938C33.2623 1.57955 33.8201 1.20686 34.434 0.952587C35.0478 0.698315 35.7058 0.567443 36.3702 0.567444H73.8962L96.1196 22.7909V92.9168C96.1196 93.5812 95.9888 94.2392 95.7345 94.853C95.4802 95.4669 95.1075 96.0247 94.6377 96.4945C94.1679 96.9643 93.6101 97.337 92.9962 97.5913C92.3824 97.8456 91.7244 97.9764 91.06 97.9764Z" fill="white"/>
<path id="Vector (Stroke)_2" fill-rule="evenodd" clip-rule="evenodd" d="M36.3702 96.2746H91.06C91.5009 96.2746 91.9376 96.1878 92.345 96.019C92.7523 95.8503 93.1225 95.6029 93.4343 95.2911C93.7461 94.9793 93.9935 94.6092 94.1622 94.2018C94.331 93.7944 94.4178 93.3578 94.4178 92.9168V23.4958L73.1913 2.26929H36.3702C35.9293 2.26929 35.4926 2.35614 35.0852 2.52488C34.6778 2.69363 34.3077 2.94096 33.9959 3.25277C33.6841 3.56457 33.4367 3.93473 33.268 4.34212C33.0992 4.74951 33.0124 5.18615 33.0124 5.6271V92.9168C33.0124 93.3577 33.0992 93.7944 33.268 94.2018C33.4367 94.6092 33.6841 94.9793 33.9959 95.2911C34.3077 95.6029 34.6778 95.8503 35.0852 96.019C35.4926 96.1877 35.9292 96.2746 36.3702 96.2746ZM73.8962 0.567444H36.3702C35.7058 0.567444 35.0478 0.698315 34.434 0.952587C33.8201 1.20686 33.2623 1.57955 32.7925 2.04938C32.3227 2.51922 31.95 3.07699 31.6957 3.69085C31.4414 4.30472 31.3105 4.96266 31.3105 5.6271V92.9168C31.3105 93.5812 31.4414 94.2392 31.6957 94.853C31.95 95.4669 32.3227 96.0247 32.7925 96.4945C33.2623 96.9643 33.8201 97.337 34.434 97.5913C35.0478 97.8456 35.7058 97.9764 36.3702 97.9764H91.06C91.7244 97.9764 92.3824 97.8456 92.9962 97.5913C93.6101 97.337 94.1679 96.9643 94.6377 96.4945C95.1075 96.0247 95.4802 95.4669 95.7345 94.853C95.9888 94.2392 96.1196 93.5812 96.1196 92.9168V22.7909L73.8962 0.567444Z" fill="#E4E4E7"/>
<path id="Vector_4" d="M96.284 22.7909H79.1202C77.7783 22.7909 76.4914 22.2578 75.5425 21.3089C74.5936 20.3601 74.0605 19.0731 74.0605 17.7312V0.567444L96.284 22.7909Z" fill="#8271F0"/>
<path id="Vector (Stroke)_3" fill-rule="evenodd" clip-rule="evenodd" d="M36.5342 1.13456C35.9442 1.13456 35.36 1.25076 34.815 1.47652C34.27 1.70229 33.7747 2.03319 33.3576 2.45035C32.9404 2.86751 32.6095 3.36274 32.3837 3.90778C32.158 4.45282 32.0418 5.03699 32.0418 5.62694V92.9166C32.0418 93.5066 32.158 94.0908 32.3837 94.6358C32.6095 95.1808 32.9404 95.6761 33.3576 96.0932C33.7747 96.5104 34.27 96.8413 34.815 97.067C35.36 97.2928 35.9442 97.409 36.5342 97.409H91.2239C91.8139 97.409 92.3981 97.2928 92.9431 97.0671C93.4881 96.8413 93.9834 96.5104 94.4005 96.0932C94.8177 95.6761 95.1486 95.1808 95.3744 94.6358C95.6001 94.0908 95.7163 93.5066 95.7163 92.9166V23.0257L73.8252 1.13456H36.5342ZM34.3808 0.428325C35.0635 0.145545 35.7952 -4.0575e-07 36.5342 0H74.0602C74.2106 0 74.3549 0.0597669 74.4613 0.166153L96.6847 22.3896C96.7911 22.496 96.8509 22.6403 96.8509 22.7907V92.9166C96.8509 93.6556 96.7053 94.3873 96.4226 95.07C96.1398 95.7527 95.7253 96.373 95.2028 96.8955C94.6803 97.418 94.06 97.8325 93.3773 98.1152C92.6946 98.398 91.9629 98.5436 91.2239 98.5436H36.5342C35.7952 98.5436 35.0635 98.398 34.3808 98.1152C33.6981 97.8325 33.0778 97.418 32.5553 96.8955C32.0328 96.373 31.6183 95.7527 31.3356 95.07C31.0528 94.3873 30.9072 93.6556 30.9072 92.9166V5.62694C30.9072 4.888 31.0528 4.15629 31.3356 3.4736C31.6183 2.79091 32.0328 2.1706 32.5553 1.64809C33.0778 1.12558 33.6981 0.711105 34.3808 0.428325Z" fill="#E4E4E7"/>
<path id="Vector_5" d="M55.1451 49.2305C57.3774 49.2305 59.1871 47.4208 59.1871 45.1884C59.1871 42.956 57.3774 41.1464 55.1451 41.1464C52.9127 41.1464 51.103 42.956 51.103 45.1884C51.103 47.4208 52.9127 49.2305 55.1451 49.2305Z" fill="#8271F0"/>
<path id="Vector_6" d="M72.3521 49.2305C74.5845 49.2305 76.3942 47.4208 76.3942 45.1884C76.3942 42.956 74.5845 41.1464 72.3521 41.1464C70.1198 41.1464 68.3101 42.956 68.3101 45.1884C68.3101 47.4208 70.1198 49.2305 72.3521 49.2305Z" fill="#8271F0"/>
<path id="Vector_7" d="M76.6153 64.3588C76.28 64.3593 75.9479 64.2935 75.6382 64.1652C75.3284 64.0369 75.047 63.8486 74.8102 63.6112C71.8742 60.6819 67.8962 59.0368 63.7487 59.0367C59.6013 59.0367 55.6232 60.6818 52.6871 63.6111C52.4501 63.8482 52.1687 64.0363 51.859 64.1646C51.5493 64.293 51.2173 64.3591 50.882 64.3591C50.5468 64.3591 50.2148 64.2931 49.905 64.1648C49.5953 64.0365 49.3138 63.8485 49.0768 63.6114C48.8397 63.3744 48.6516 63.0929 48.5234 62.7832C48.3951 62.4734 48.3291 62.1414 48.3291 61.8062C48.3291 61.4709 48.3952 61.1389 48.5236 60.8292C48.6519 60.5195 48.84 60.2381 49.0771 60.001C52.9713 56.1157 58.2477 53.9336 63.7487 53.9336C69.2497 53.9336 74.5261 56.1156 78.4203 60.0009C78.7773 60.3579 79.0205 60.8128 79.119 61.308C79.2175 61.8032 79.167 62.3165 78.9738 62.7829C78.7806 63.2494 78.4534 63.6481 78.0336 63.9286C77.6138 64.2091 77.1202 64.3588 76.6153 64.3588L76.6153 64.3588Z" fill="#8271F0"/>
<path id="Vector_8" d="M91.5695 73.0514L86.8789 77.742L104.53 95.3934L109.221 90.7029L91.5695 73.0514Z" fill="white"/>
<path id="Vector (Stroke)_4" fill-rule="evenodd" clip-rule="evenodd" d="M86.277 78.3437C85.9447 78.0114 85.9447 77.4726 86.277 77.1403L90.9675 72.4498C91.2998 72.1174 91.8386 72.1174 92.1709 72.4498L109.822 90.1012C110.155 90.4335 110.155 90.9723 109.822 91.3046L105.132 95.9951C104.799 96.3274 104.261 96.3274 103.928 95.9951L86.277 78.3437ZM88.0821 77.742L104.53 94.1901L108.017 90.7029L91.5692 74.2548L88.0821 77.742Z" fill="#E4E4E7"/>
<path id="Vector_9" d="M95.2922 81.6866L95.2922 81.6866C92.3527 84.6261 92.3527 89.392 95.2922 92.3315L106.435 103.474C109.374 106.414 114.14 106.414 117.08 103.474L117.08 103.474C120.019 100.535 120.019 95.7688 117.08 92.8293L105.937 81.6866C102.998 78.7471 98.2317 78.7471 95.2922 81.6866Z" fill="white"/>
<path id="Vector (Stroke)_5" fill-rule="evenodd" clip-rule="evenodd" d="M95.8941 82.2883C93.2869 84.8955 93.2869 89.1226 95.8941 91.7298L107.037 102.873C109.644 105.48 113.871 105.48 116.478 102.873L116.478 102.873C119.086 100.265 119.086 96.0382 116.478 93.431L105.336 82.2883C102.728 79.6811 98.5013 79.6811 95.8941 82.2883L95.8941 82.2883ZM94.6907 92.9332C91.4189 89.6614 91.4189 84.3567 94.6907 81.0849L94.6908 81.0849C97.9626 77.8131 103.267 77.8131 106.539 81.0849L117.682 92.2276C120.954 95.4994 120.954 100.804 117.682 104.076L117.682 104.076C114.41 107.348 109.105 107.348 105.833 104.076L94.6907 92.9332Z" fill="#E4E4E7"/>
<path id="Vector_10" d="M37.5986 26.7284C32.4293 31.8977 28.9089 38.4838 27.4827 45.6539C26.0565 52.8239 26.7885 60.2559 29.5861 67.0099C32.3837 73.764 37.1213 79.5368 43.1998 83.5983C49.2783 87.6598 56.4246 89.8276 63.7352 89.8276C71.0457 89.8276 78.192 87.6598 84.2705 83.5983C90.349 79.5368 95.0866 73.764 97.8842 67.0099C100.682 60.2559 101.414 52.8239 99.9876 45.6539C98.5614 38.4838 95.0411 31.8977 89.8717 26.7284C86.4394 23.296 82.3647 20.5734 77.8802 18.7158C73.3956 16.8583 68.5892 15.9022 63.7352 15.9022C58.8811 15.9022 54.0747 16.8583 49.5901 18.7158C45.1056 20.5734 41.0309 23.296 37.5986 26.7284ZM85.0509 74.1807C80.8351 78.3966 75.4637 81.2677 69.6162 82.4308C63.7686 83.594 57.7074 82.997 52.1991 80.7154C46.6908 78.4338 41.9828 74.57 38.6704 69.6127C35.358 64.6553 33.59 58.8271 33.59 52.8649C33.59 46.9028 35.358 41.0745 38.6704 36.1172C41.9828 31.1598 46.6908 27.2961 52.1991 25.0145C57.7074 22.7329 63.7686 22.1359 69.6162 23.299C75.4638 24.4622 80.8351 27.3333 85.051 31.5491C90.7043 37.2024 93.8802 44.87 93.8802 52.8649C93.8802 60.8599 90.7042 68.5274 85.0509 74.1807Z" fill="white"/>
<path id="Vector (Stroke)_6" fill-rule="evenodd" clip-rule="evenodd" d="M49.2644 17.9295C53.8521 16.0292 58.7692 15.0511 63.735 15.0511C68.7008 15.0511 73.6179 16.0292 78.2057 17.9295C82.7934 19.8299 86.962 22.6152 90.4733 26.1265C95.7616 31.4148 99.363 38.1526 100.822 45.4877C102.281 52.8228 101.532 60.4259 98.6702 67.3354C95.8082 74.2449 90.9615 80.1506 84.7431 84.3056C78.5247 88.4606 71.2138 90.6784 63.735 90.6784C56.2562 90.6784 48.9453 88.4606 42.7269 84.3056C36.5085 80.1506 31.6618 74.2449 28.7998 67.3354C25.9378 60.4259 25.1889 52.8228 26.648 45.4877C28.107 38.1526 31.7084 31.4148 36.9967 26.1265C40.5081 22.6152 44.6766 19.8299 49.2644 17.9295ZM63.735 16.753C58.9927 16.753 54.2969 17.687 49.9156 19.5018C45.5343 21.3166 41.5534 23.9766 38.2001 27.3299C33.1498 32.3802 29.7105 38.8147 28.3171 45.8197C26.9237 52.8247 27.6389 60.0856 30.3721 66.6841C33.1053 73.2827 37.7338 78.9226 43.6724 82.8906C49.6109 86.8586 56.5928 88.9765 63.735 88.9765C70.8772 88.9765 77.8591 86.8586 83.7976 82.8906C89.7362 78.9226 94.3647 73.2827 97.0979 66.6841C99.8311 60.0856 100.546 52.8247 99.1529 45.8197C97.7595 38.8147 94.3202 32.3802 89.2699 27.3299C85.9166 23.9766 81.9357 21.3166 77.5544 19.5018C73.1731 17.687 68.4773 16.753 63.735 16.753ZM69.45 24.1335C63.7675 23.0031 57.8774 23.5833 52.5246 25.8005C47.1718 28.0177 42.5967 31.7724 39.3778 36.5898C36.1589 41.4072 34.4408 47.0709 34.4408 52.8648C34.4408 58.6586 36.1589 64.3223 39.3777 69.1398C42.5966 73.9572 47.1718 77.7119 52.5246 79.9291C57.8774 82.1463 63.7675 82.7264 69.45 81.5961C75.1325 80.4658 80.3522 77.6758 84.4491 73.5789C89.9428 68.0852 93.0292 60.6341 93.0292 52.8648C93.0292 45.0955 89.9428 37.6444 84.4491 32.1507C80.3523 28.0538 75.1325 25.2638 69.45 24.1335ZM51.8733 24.2282C57.5371 21.8821 63.7694 21.2683 69.782 22.4643C75.7947 23.6603 81.3176 26.6124 85.6525 30.9473C91.4654 36.7602 94.731 44.6441 94.731 52.8648C94.731 61.0854 91.4654 68.9694 85.6525 74.7823C81.3176 79.1171 75.7947 82.0692 69.782 83.2652C63.7694 84.4612 57.5371 83.8474 51.8733 81.5014C46.2095 79.1554 41.3686 75.1825 37.9627 70.0852C34.5568 64.988 32.7389 58.9952 32.739 52.8648C32.739 46.7343 34.5568 40.7416 37.9627 35.6443C41.3686 30.547 46.2096 26.5742 51.8733 24.2282Z" fill="#E4E4E7"/>
</g>
</svg>
