<svg width="124" height="110" viewBox="0 0 124 110" fill="none" xmlns="http://www.w3.org/2000/svg">
<path opacity="0.1" d="M25.3644 109.22H97.9537C99.9489 109.225 101.872 108.471 103.338 107.109C109.453 101.414 114.345 94.5196 117.713 86.8512C121.081 79.1829 122.854 70.9024 122.924 62.519C123.237 28.431 95.6928 0.382747 61.8077 0.302299C27.9033 0.221806 0.393595 27.8478 0.393595 61.9377C0.383915 70.4224 2.12052 78.8173 5.49405 86.5936C8.86758 94.37 13.805 101.359 19.9954 107.122C21.4581 108.477 23.3758 109.227 25.3644 109.22Z" fill="#8271F0"/>
<path d="M80.8031 108.954H26.1134C25.4489 108.954 24.791 108.824 24.1771 108.569C23.5633 108.315 23.0055 107.942 22.5357 107.472C22.0658 107.003 21.6931 106.445 21.4389 105.831C21.1846 105.217 21.0537 104.559 21.0537 103.895V16.6051C21.0537 15.2632 21.5868 13.9762 22.5357 13.0273C23.4845 12.0785 24.7715 11.5454 26.1134 11.5454H63.6394L85.8628 33.7688V103.895C85.8628 105.237 85.3297 106.524 84.3809 107.472C83.432 108.421 82.145 108.954 80.8031 108.954Z" fill="#18181B"/>
<path fill-rule="evenodd" clip-rule="evenodd" d="M26.1137 12.3965C24.9975 12.3965 23.927 12.84 23.1377 13.6292C22.3484 14.4185 21.905 15.489 21.905 16.6053V103.895C21.905 104.448 22.0138 104.995 22.2253 105.506C22.4368 106.016 22.7469 106.48 23.1377 106.871C23.5285 107.262 23.9925 107.572 24.5031 107.783C25.0137 107.995 25.561 108.104 26.1137 108.104H80.8035C81.9197 108.104 82.9902 107.66 83.7795 106.871C84.5688 106.082 85.0122 105.011 85.0122 103.895V34.1215L63.2872 12.3965H26.1137ZM21.9343 12.4259C23.0427 11.3174 24.5461 10.6947 26.1137 10.6947H63.6397C63.8654 10.6947 64.0818 10.7844 64.2414 10.9439L86.4648 33.1674C86.6244 33.3269 86.7141 33.5434 86.7141 33.7691V103.895C86.7141 105.463 86.0913 106.966 84.9829 108.074C83.8744 109.183 82.3711 109.806 80.8035 109.806H26.1137C25.3375 109.806 24.5689 109.653 23.8518 109.356C23.1347 109.059 22.4831 108.623 21.9343 108.074C21.3854 107.526 20.9501 106.874 20.653 106.157C20.356 105.44 20.2031 104.671 20.2031 103.895V16.6053C20.2031 15.0377 20.8259 13.5343 21.9343 12.4259Z" fill="#51525C"/>
<path d="M91.06 97.9765H36.3702C35.7058 97.9765 35.0478 97.8456 34.434 97.5914C33.8201 97.3371 33.2623 96.9644 32.7925 96.4946C32.3227 96.0247 31.95 95.467 31.6957 94.8531C31.4414 94.2392 31.3105 93.5813 31.3105 92.9168V5.62716C31.3105 4.96272 31.4414 4.30478 31.6957 3.69092C31.95 3.07705 32.3227 2.51928 32.7925 2.04944C33.2623 1.57961 33.8201 1.20692 34.434 0.952648C35.0478 0.698376 35.7058 0.567505 36.3702 0.567505H73.8962L96.1196 22.7909V92.9169C96.1196 93.5813 95.9888 94.2392 95.7345 94.8531C95.4802 95.467 95.1075 96.0247 94.6377 96.4946C94.1679 96.9644 93.6101 97.3371 92.9962 97.5914C92.3824 97.8456 91.7244 97.9765 91.06 97.9765Z" fill="#18181B"/>
<path fill-rule="evenodd" clip-rule="evenodd" d="M36.3702 96.2747H91.06C91.5009 96.2747 91.9376 96.1878 92.345 96.0191C92.7523 95.8503 93.1225 95.603 93.4343 95.2912C93.7461 94.9794 93.9935 94.6092 94.1622 94.2018C94.331 93.7945 94.4178 93.3578 94.4178 92.9169V23.4959L73.1913 2.26935H36.3702C35.9293 2.26935 35.4926 2.3562 35.0852 2.52494C34.6778 2.69369 34.3077 2.94103 33.9959 3.25283C33.6841 3.56463 33.4367 3.93479 33.268 4.34218C33.0992 4.74957 33.0124 5.18621 33.0124 5.62716V92.9168C33.0124 93.3578 33.0992 93.7944 33.268 94.2018C33.4367 94.6092 33.6841 94.9794 33.9959 95.2912C34.3077 95.603 34.6778 95.8503 35.0852 96.0191C35.4926 96.1878 35.9292 96.2747 36.3702 96.2747ZM73.8962 0.567505H36.3702C35.7058 0.567505 35.0478 0.698376 34.434 0.952648C33.8201 1.20692 33.2623 1.57961 32.7925 2.04944C32.3227 2.51928 31.95 3.07705 31.6957 3.69092C31.4414 4.30478 31.3105 4.96272 31.3105 5.62716V92.9168C31.3105 93.5813 31.4414 94.2392 31.6957 94.8531C31.95 95.467 32.3227 96.0247 32.7925 96.4946C33.2623 96.9644 33.8201 97.3371 34.434 97.5914C35.0478 97.8456 35.7058 97.9765 36.3702 97.9765H91.06C91.7244 97.9765 92.3824 97.8456 92.9962 97.5914C93.6101 97.3371 94.1679 96.9644 94.6377 96.4946C95.1075 96.0247 95.4802 95.467 95.7345 94.8531C95.9888 94.2392 96.1196 93.5813 96.1196 92.9169V22.7909L73.8962 0.567505Z" fill="#51525C"/>
<path d="M96.284 22.7909H79.1202C77.7783 22.7909 76.4914 22.2579 75.5425 21.309C74.5936 20.3601 74.0605 19.0732 74.0605 17.7313V0.567505L96.284 22.7909Z" fill="#9E90FF"/>
<path fill-rule="evenodd" clip-rule="evenodd" d="M36.5332 1.13456C35.9432 1.13456 35.3591 1.25076 34.814 1.47652C34.269 1.70229 33.7738 2.03319 33.3566 2.45035C32.9394 2.86751 32.6085 3.36274 32.3828 3.90778C32.157 4.45282 32.0408 5.03699 32.0408 5.62694V92.9166C32.0408 93.5066 32.157 94.0908 32.3828 94.6358C32.6085 95.1808 32.9394 95.6761 33.3566 96.0932C33.7738 96.5104 34.269 96.8413 34.814 97.067C35.3591 97.2928 35.9432 97.409 36.5332 97.409H91.223C91.8129 97.409 92.3971 97.2928 92.9421 97.0671C93.4872 96.8413 93.9824 96.5104 94.3996 96.0932C94.8167 95.6761 95.1476 95.1808 95.3734 94.6358C95.5992 94.0908 95.7153 93.5066 95.7153 92.9166V23.0257L73.8242 1.13456H36.5332ZM34.3799 0.428325C35.0625 0.145545 35.7943 -4.0575e-07 36.5332 0H74.0592C74.2096 0 74.3539 0.0597669 74.4603 0.166153L96.6838 22.3896C96.7901 22.496 96.8499 22.6403 96.8499 22.7907V92.9166C96.8499 93.6556 96.7044 94.3873 96.4216 95.07C96.1388 95.7527 95.7243 96.373 95.2018 96.8955C94.6793 97.418 94.059 97.8325 93.3763 98.1152C92.6936 98.398 91.9619 98.5436 91.223 98.5436H36.5332C35.7943 98.5436 35.0625 98.398 34.3799 98.1152C33.6972 97.8325 33.0769 97.418 32.5543 96.8955C32.0318 96.373 31.6174 95.7527 31.3346 95.07C31.0518 94.3873 30.9062 93.6556 30.9062 92.9166V5.62694C30.9062 4.888 31.0518 4.15629 31.3346 3.4736C31.6174 2.79091 32.0318 2.1706 32.5543 1.64809C33.0769 1.12558 33.6972 0.711105 34.3799 0.428325Z" fill="#51525C"/>
<path d="M55.1446 49.2305C57.377 49.2305 59.1866 47.4208 59.1866 45.1884C59.1866 42.956 57.377 41.1464 55.1446 41.1464C52.9122 41.1464 51.1025 42.956 51.1025 45.1884C51.1025 47.4208 52.9122 49.2305 55.1446 49.2305Z" fill="#9E90FF"/>
<path d="M72.3516 49.2305C74.584 49.2305 76.3937 47.4208 76.3937 45.1884C76.3937 42.956 74.584 41.1464 72.3516 41.1464C70.1193 41.1464 68.3096 42.956 68.3096 45.1884C68.3096 47.4208 70.1193 49.2305 72.3516 49.2305Z" fill="#9E90FF"/>
<path d="M76.6143 64.3588C76.279 64.3593 75.9469 64.2935 75.6372 64.1652C75.3274 64.0369 75.0461 63.8486 74.8093 63.6112C71.8733 60.6819 67.8952 59.0368 63.7477 59.0367C59.6003 59.0367 55.6222 60.6818 52.6862 63.6111C52.4491 63.8482 52.1677 64.0363 51.858 64.1646C51.5483 64.293 51.2163 64.3591 50.881 64.3591C50.5458 64.3591 50.2138 64.2931 49.904 64.1648C49.5943 64.0365 49.3129 63.8485 49.0758 63.6114C48.8387 63.3744 48.6507 63.0929 48.5224 62.7832C48.3941 62.4734 48.3281 62.1414 48.3281 61.8062C48.3282 61.4709 48.3942 61.1389 48.5226 60.8292C48.6509 60.5195 48.839 60.2381 49.0761 60.001C52.9703 56.1157 58.2467 53.9336 63.7477 53.9336C69.2487 53.9336 74.5251 56.1156 78.4193 60.0009C78.7764 60.3579 79.0195 60.8128 79.118 61.308C79.2166 61.8032 79.166 62.3165 78.9728 62.7829C78.7796 63.2494 78.4524 63.6481 78.0326 63.9286C77.6128 64.2091 77.1192 64.3588 76.6143 64.3588L76.6143 64.3588Z" fill="#9E90FF"/>
<path d="M91.5685 73.0515L86.8779 77.7421L104.529 95.3935L109.22 90.7029L91.5685 73.0515Z" fill="#18181B"/>
<path fill-rule="evenodd" clip-rule="evenodd" d="M86.2765 78.3438C85.9442 78.0115 85.9442 77.4727 86.2765 77.1404L90.9671 72.4498C91.2994 72.1175 91.8381 72.1175 92.1704 72.4498L109.822 90.1012C110.154 90.4336 110.154 90.9723 109.822 91.3046L105.131 95.9952C104.799 96.3275 104.26 96.3275 103.928 95.9952L86.2765 78.3438ZM88.0816 77.7421L104.53 94.1901L108.017 90.7029L91.5687 74.2549L88.0816 77.7421Z" fill="#51525C"/>
<path d="M95.2922 81.6866L95.2922 81.6866C92.3527 84.6261 92.3527 89.392 95.2922 92.3315L106.435 103.474C109.374 106.414 114.14 106.414 117.08 103.474L117.08 103.474C120.019 100.535 120.019 95.7688 117.08 92.8293L105.937 81.6866C102.998 78.7471 98.2317 78.7471 95.2922 81.6866Z" fill="#18181B"/>
<path fill-rule="evenodd" clip-rule="evenodd" d="M95.8941 82.2883C93.2869 84.8955 93.2869 89.1226 95.8941 91.7298L107.037 102.873C109.644 105.48 113.871 105.48 116.478 102.873L116.478 102.873C119.086 100.265 119.086 96.0382 116.478 93.431L105.336 82.2883C102.728 79.6811 98.5013 79.6811 95.8941 82.2883L95.8941 82.2883ZM94.6907 92.9332C91.4189 89.6614 91.4189 84.3567 94.6907 81.0849L94.6908 81.0849C97.9626 77.8131 103.267 77.8131 106.539 81.0849L117.682 92.2276C120.954 95.4994 120.954 100.804 117.682 104.076L117.682 104.076C114.41 107.348 109.105 107.348 105.833 104.076L94.6907 92.9332Z" fill="#51525C"/>
<path d="M37.5986 26.7284C32.4293 31.8977 28.9089 38.4838 27.4827 45.6539C26.0565 52.8239 26.7885 60.2559 29.5861 67.0099C32.3837 73.764 37.1213 79.5368 43.1998 83.5983C49.2783 87.6598 56.4246 89.8276 63.7352 89.8276C71.0457 89.8276 78.192 87.6598 84.2705 83.5983C90.349 79.5368 95.0866 73.764 97.8842 67.0099C100.682 60.2559 101.414 52.8239 99.9876 45.6539C98.5614 38.4838 95.0411 31.8977 89.8717 26.7284C86.4394 23.296 82.3647 20.5734 77.8802 18.7158C73.3956 16.8583 68.5892 15.9022 63.7352 15.9022C58.8811 15.9022 54.0747 16.8583 49.5901 18.7158C45.1056 20.5734 41.0309 23.296 37.5986 26.7284ZM85.0509 74.1807C80.8351 78.3966 75.4637 81.2677 69.6162 82.4308C63.7686 83.594 57.7074 82.997 52.1991 80.7154C46.6908 78.4338 41.9828 74.57 38.6704 69.6127C35.358 64.6553 33.59 58.8271 33.59 52.8649C33.59 46.9028 35.358 41.0745 38.6704 36.1172C41.9828 31.1598 46.6908 27.2961 52.1991 25.0145C57.7074 22.7329 63.7686 22.1359 69.6162 23.299C75.4638 24.4622 80.8351 27.3333 85.051 31.5491C90.7043 37.2024 93.8802 44.87 93.8802 52.8649C93.8802 60.8599 90.7042 68.5274 85.0509 74.1807Z" fill="#18181B"/>
<path fill-rule="evenodd" clip-rule="evenodd" d="M49.2639 17.9295C53.8516 16.0292 58.7688 15.0511 63.7345 15.0511C68.7003 15.0511 73.6174 16.0292 78.2052 17.9295C82.7929 19.8299 86.9615 22.6152 90.4728 26.1265C95.7611 31.4148 99.3625 38.1526 100.822 45.4877C102.281 52.8228 101.532 60.4259 98.6697 67.3354C95.8077 74.2449 90.961 80.1506 84.7426 84.3056C78.5242 88.4606 71.2133 90.6784 63.7345 90.6784C56.2557 90.6784 48.9448 88.4606 42.7264 84.3056C36.508 80.1506 31.6613 74.2449 28.7993 67.3354C25.9373 60.4259 25.1884 52.8228 26.6475 45.4877C28.1065 38.1526 31.7079 31.4148 36.9962 26.1265C40.5076 22.6152 44.6761 19.8299 49.2639 17.9295ZM63.7345 16.753C58.9922 16.753 54.2964 17.687 49.9151 19.5018C45.5339 21.3166 41.5529 23.9766 38.1996 27.3299C33.1493 32.3802 29.71 38.8147 28.3166 45.8197C26.9233 52.8247 27.6384 60.0856 30.3716 66.6841C33.1048 73.2827 37.7334 78.9226 43.6719 82.8906C49.6105 86.8586 56.5923 88.9765 63.7345 88.9765C70.8767 88.9765 77.8586 86.8586 83.7971 82.8906C89.7357 78.9226 94.3642 73.2827 97.0974 66.6841C99.8306 60.0856 100.546 52.8247 99.1524 45.8197C97.759 38.8147 94.3197 32.3802 89.2694 27.3299C85.9161 23.9766 81.9352 21.3166 77.5539 19.5018C73.1726 17.687 68.4768 16.753 63.7345 16.753ZM69.4495 24.1335C63.767 23.0031 57.8769 23.5833 52.5241 25.8005C47.1713 28.0177 42.5962 31.7724 39.3773 36.5898C36.1584 41.4072 34.4403 47.0709 34.4403 52.8648C34.4403 58.6586 36.1584 64.3223 39.3773 69.1398C42.5961 73.9572 47.1713 77.7119 52.5241 79.9291C57.8769 82.1463 63.767 82.7264 69.4495 81.5961C75.132 80.4658 80.3518 77.6758 84.4486 73.5789C89.9423 68.0852 93.0287 60.6341 93.0287 52.8648C93.0287 45.0955 89.9424 37.6444 84.4486 32.1507C80.3518 28.0538 75.1321 25.2638 69.4495 24.1335ZM51.8729 24.2282C57.5366 21.8821 63.7689 21.2683 69.7815 22.4643C75.7942 23.6603 81.3172 26.6124 85.652 30.9473C91.4649 36.7602 94.7305 44.6441 94.7305 52.8648C94.7305 61.0854 91.4649 68.9694 85.652 74.7823C81.3171 79.1171 75.7942 82.0692 69.7815 83.2652C63.7689 84.4612 57.5366 83.8474 51.8728 81.5014C46.209 79.1554 41.3681 75.1825 37.9622 70.0852C34.5563 64.988 32.7385 58.9952 32.7385 52.8648C32.7385 46.7343 34.5564 40.7416 37.9622 35.6443C41.3681 30.547 46.2091 26.5742 51.8729 24.2282Z" fill="#51525C"/>
</svg>
