<svg width="80" height="80" viewBox="0 0 80 80" fill="none" xmlns="http://www.w3.org/2000/svg">
<circle cx="40" cy="40" r="40" fill="#F04438" fill-opacity="0.1"/>
<g clip-path="url(#clip0_4916_4565)">
<path d="M39.9997 46.4128C38.8815 46.4128 37.9441 47.3502 37.9441 48.4685C37.9441 49.5868 38.8815 50.5242 39.9997 50.5242C41.0769 50.5242 42.0554 49.5868 42.0061 48.5178C42.0554 47.342 41.1262 46.4128 39.9997 46.4128Z" fill="#F04438"/>
<path d="M59.0267 53.698C60.3176 51.4696 60.3258 48.8137 59.0431 46.5936L46.1665 24.2939C44.892 22.0491 42.5896 20.717 40.0077 20.717C37.4258 20.717 35.1235 22.0573 33.849 24.2857L20.9559 46.6101C19.6732 48.8548 19.6814 51.5272 20.9806 53.7555C22.2633 55.9592 24.5574 57.283 27.1229 57.283H52.8432C55.4169 57.283 57.7275 55.9427 59.0267 53.698ZM56.231 52.0863C55.5156 53.3197 54.2493 54.0515 52.835 54.0515H27.1147C25.7168 54.0515 24.4588 53.3362 23.7598 52.1275C23.0527 50.9023 23.0445 49.4387 23.7516 48.2053L36.6447 25.8891C37.3436 24.6639 38.5934 23.9403 40.0077 23.9403C41.4138 23.9403 42.6719 24.6721 43.3708 25.8973L56.2556 48.2135C56.9463 49.414 56.9381 50.8612 56.231 52.0863Z" fill="#F04438"/>
<path d="M39.4898 31.9821C38.5113 32.2617 37.9028 33.1497 37.9028 34.2269C37.9522 34.8765 37.9933 35.5343 38.0426 36.1839C38.1824 38.6589 38.3222 41.0845 38.462 43.5596C38.5113 44.3983 39.1609 45.0067 39.9996 45.0067C40.8383 45.0067 41.4961 44.3571 41.5372 43.5102C41.5372 43.0004 41.5372 42.5317 41.5866 42.0137C41.677 40.4267 41.7757 38.8398 41.8661 37.2528C41.9155 36.225 42.0059 35.1972 42.0553 34.1693C42.0553 33.7993 42.0059 33.4704 41.8661 33.1415C41.4468 32.2206 40.4683 31.7519 39.4898 31.9821Z" fill="#F04438"/>
</g>
<defs>
<clipPath id="clip0_4916_4565">
<rect width="40" height="40" fill="white" transform="translate(20 19)"/>
</clipPath>
</defs>
</svg>
