<svg width="40" height="41" viewBox="0 0 40 41" fill="none" xmlns="http://www.w3.org/2000/svg">
<g id="Group 34293">
<circle id="Ellipse 7" cx="20" cy="20.5" r="20" fill="url(#paint0_linear_4903_7147)"/>
<g id="Group">
<path id="Union" fill-rule="evenodd" clip-rule="evenodd" d="M21.9024 14.7669C21.497 14.4115 20.8392 14.411 20.4331 14.7657C20.027 15.1204 20.0263 15.696 20.4317 16.0513L24.1997 19.3545H14.039C13.4652 19.3545 13 19.7615 13 20.2636C13 20.7657 13.4652 21.1727 14.039 21.1727H24.1965L20.4324 24.4663C20.0266 24.8213 20.0266 25.3969 20.4324 25.7519C20.8381 26.1069 21.496 26.1069 21.9017 25.7519L27.4394 20.9065C27.8448 20.5517 27.8451 19.9765 27.4401 19.6214L21.9024 14.7669Z" fill="white"/>
</g>
</g>
<defs>
<linearGradient id="paint0_linear_4903_7147" x1="40" y1="20.5" x2="0" y2="20.5" gradientUnits="userSpaceOnUse">
<stop stop-color="#DE622E"/>
<stop offset="1" stop-color="#8271F0"/>
</linearGradient>
</defs>
</svg>
