<svg width="24" height="25" viewBox="0 0 24 25" fill="none" xmlns="http://www.w3.org/2000/svg">
<path d="M15.75 17.5V18.5C15.75 20.918 14.418 22.25 12 22.25H6C3.582 22.25 2.25 20.918 2.25 18.5V6.5C2.25 4.082 3.582 2.75 6 2.75H12C14.418 2.75 15.75 4.082 15.75 6.5V7.5C15.75 7.914 15.414 8.25 15 8.25C14.586 8.25 14.25 7.914 14.25 7.5V6.5C14.25 4.923 13.577 4.25 12 4.25H6C4.423 4.25 3.75 4.923 3.75 6.5V18.5C3.75 20.077 4.423 20.75 6 20.75H12C13.577 20.75 14.25 20.077 14.25 18.5V17.5C14.25 17.086 14.586 16.75 15 16.75C15.414 16.75 15.75 17.086 15.75 17.5ZM21.692 12.787C21.768 12.604 21.768 12.397 21.692 12.214C21.654 12.122 21.599 12.039 21.53 11.97L18.53 8.97C18.237 8.677 17.762 8.677 17.469 8.97C17.176 9.263 17.176 9.73801 17.469 10.031L19.189 11.751H8C7.586 11.751 7.25 12.087 7.25 12.501C7.25 12.915 7.586 13.251 8 13.251H19.189L17.469 14.971C17.176 15.264 17.176 15.739 17.469 16.032C17.615 16.178 17.807 16.252 17.999 16.252C18.191 16.252 18.383 16.179 18.529 16.032L21.529 13.032C21.599 12.961 21.654 12.878 21.692 12.787Z" fill="#3F3F46"/>
</svg>
