<svg width="20" height="21" viewBox="0 0 20 21" fill="none" xmlns="http://www.w3.org/2000/svg">
<path d="M10 12.4231C9.91897 12.4231 9.83689 12.4107 9.75586 12.383C9.35278 12.2476 9.13647 11.8118 9.27083 11.4087C9.45647 10.8549 9.93753 10.3328 10.7868 9.76357C11.8339 9.06203 11.6995 8.29287 11.6554 8.04057C11.5395 7.3698 10.9743 6.79856 10.3107 6.68164C9.80511 6.58933 9.31293 6.72164 8.92728 7.04472C8.53959 7.36985 8.31681 7.8486 8.31681 8.35732C8.31681 8.78194 7.97219 9.12655 7.54758 9.12655C7.12296 9.12655 6.77835 8.78194 6.77835 8.35732C6.77835 7.39219 7.20102 6.48455 7.93845 5.86609C8.66871 5.2548 9.62971 4.99951 10.5784 5.16772C11.8779 5.39746 12.9437 6.47123 13.1703 7.7779C13.3949 9.07123 12.8524 10.2313 11.6431 11.0426C10.8934 11.5452 10.7538 11.8251 10.7282 11.899C10.6205 12.22 10.321 12.4231 10 12.4231ZM11.0462 15.1154C11.0462 14.5492 10.5877 14.0897 10.0205 14.0897H10.0103C9.44411 14.0897 8.98963 14.5492 8.98963 15.1154C8.98963 15.6815 9.45438 16.141 10.0205 16.141C10.5867 16.141 11.0462 15.6815 11.0462 15.1154ZM20 16.2692V4.73077C20 2.00256 18.4974 0.5 15.7692 0.5H4.23077C1.50256 0.5 0 2.00256 0 4.73077V16.2692C0 18.9974 1.50256 20.5 4.23077 20.5H15.7692C18.4974 20.5 20 18.9974 20 16.2692ZM15.7692 2.03846C17.6564 2.03846 18.4615 2.84359 18.4615 4.73077V16.2692C18.4615 18.1564 17.6564 18.9615 15.7692 18.9615H4.23077C2.34359 18.9615 1.53846 18.1564 1.53846 16.2692V4.73077C1.53846 2.84359 2.34359 2.03846 4.23077 2.03846H15.7692Z" fill="currentColor"/>
</svg>
