<svg xmlns="http://www.w3.org/2000/svg" width="22" height="22" viewBox="0 0 22 22" fill="none">
  <path
    d="M16.8438 5.72917H8.82292C6.82733 5.72917 5.72917 6.82733 5.72917 8.82292V16.8438C5.72917 18.8393 6.82733 19.9375 8.82292 19.9375H16.8438C18.8393 19.9375 19.9375 18.8393 19.9375 16.8438V8.82292C19.9375 6.82733 18.8393 5.72917 16.8438 5.72917ZM18.5625 16.8438C18.5625 18.0648 18.0648 18.5625 16.8438 18.5625H8.82292C7.60192 18.5625 7.10417 18.0648 7.10417 16.8438V8.82292C7.10417 7.60192 7.60192 7.10417 8.82292 7.10417H16.8438C18.0648 7.10417 18.5625 7.60192 18.5625 8.82292V16.8438ZM3.4375 5.15166V13.1817C3.4375 14.2798 3.88033 14.5503 4.02608 14.6401C4.35058 14.8381 4.45123 15.2616 4.25323 15.5852C4.12307 15.7969 3.89769 15.9133 3.66577 15.9133C3.54385 15.9133 3.41908 15.8803 3.30725 15.8125C2.48133 15.3065 2.0625 14.4219 2.0625 13.1817V5.15166C2.0625 3.18816 3.18919 2.0625 5.15177 2.0625H13.1816C14.7261 2.0625 15.4642 2.73989 15.8125 3.30731C16.0105 3.63089 15.9087 4.0544 15.5851 4.2524C15.2606 4.45131 14.839 4.34866 14.64 4.02508C14.5511 3.87933 14.2797 3.4366 13.1816 3.4366H5.15177C3.93444 3.43752 3.4375 3.93433 3.4375 5.15166Z"
    fill="#F46F4E" />
</svg>