<svg xmlns="http://www.w3.org/2000/svg" width="22" height="22" viewBox="0 0 22 22" fill="none">
  <path
    d="M19.7359 18.7642L16.2149 15.2432C17.3919 13.8472 18.1042 12.0478 18.1042 10.0833C18.1042 5.66042 14.5063 2.0625 10.0833 2.0625C5.66042 2.0625 2.0625 5.66042 2.0625 10.0833C2.0625 14.5063 5.66042 18.1042 10.0833 18.1042C12.0478 18.1042 13.8472 17.3919 15.2433 16.2149L18.7641 19.7358C18.898 19.8697 19.074 19.9375 19.25 19.9375C19.426 19.9375 19.602 19.8706 19.7359 19.7358C20.0044 19.4682 20.0044 19.0328 19.7359 18.7642ZM3.4375 10.0833C3.4375 6.4185 6.4185 3.4375 10.0833 3.4375C13.7482 3.4375 16.7292 6.4185 16.7292 10.0833C16.7292 13.7482 13.7482 16.7292 10.0833 16.7292C6.4185 16.7292 3.4375 13.7482 3.4375 10.0833Z"
    fill="#51525C" />
  <path
    d="M19.7359 18.7642L16.2149 15.2432C17.3919 13.8472 18.1042 12.0478 18.1042 10.0833C18.1042 5.66042 14.5063 2.0625 10.0833 2.0625C5.66042 2.0625 2.0625 5.66042 2.0625 10.0833C2.0625 14.5063 5.66042 18.1042 10.0833 18.1042C12.0478 18.1042 13.8472 17.3919 15.2433 16.2149L18.7641 19.7358C18.898 19.8697 19.074 19.9375 19.25 19.9375C19.426 19.9375 19.602 19.8706 19.7359 19.7358C20.0044 19.4682 20.0044 19.0328 19.7359 18.7642ZM3.4375 10.0833C3.4375 6.4185 6.4185 3.4375 10.0833 3.4375C13.7482 3.4375 16.7292 6.4185 16.7292 10.0833C16.7292 13.7482 13.7482 16.7292 10.0833 16.7292C6.4185 16.7292 3.4375 13.7482 3.4375 10.0833Z"
    fill="black" fill-opacity="0.2" />
  <path
    d="M19.7359 18.7642L16.2149 15.2432C17.3919 13.8472 18.1042 12.0478 18.1042 10.0833C18.1042 5.66042 14.5063 2.0625 10.0833 2.0625C5.66042 2.0625 2.0625 5.66042 2.0625 10.0833C2.0625 14.5063 5.66042 18.1042 10.0833 18.1042C12.0478 18.1042 13.8472 17.3919 15.2433 16.2149L18.7641 19.7358C18.898 19.8697 19.074 19.9375 19.25 19.9375C19.426 19.9375 19.602 19.8706 19.7359 19.7358C20.0044 19.4682 20.0044 19.0328 19.7359 18.7642ZM3.4375 10.0833C3.4375 6.4185 6.4185 3.4375 10.0833 3.4375C13.7482 3.4375 16.7292 6.4185 16.7292 10.0833C16.7292 13.7482 13.7482 16.7292 10.0833 16.7292C6.4185 16.7292 3.4375 13.7482 3.4375 10.0833Z"
    fill="black" fill-opacity="0.2" />
  <path
    d="M19.7359 18.7642L16.2149 15.2432C17.3919 13.8472 18.1042 12.0478 18.1042 10.0833C18.1042 5.66042 14.5063 2.0625 10.0833 2.0625C5.66042 2.0625 2.0625 5.66042 2.0625 10.0833C2.0625 14.5063 5.66042 18.1042 10.0833 18.1042C12.0478 18.1042 13.8472 17.3919 15.2433 16.2149L18.7641 19.7358C18.898 19.8697 19.074 19.9375 19.25 19.9375C19.426 19.9375 19.602 19.8706 19.7359 19.7358C20.0044 19.4682 20.0044 19.0328 19.7359 18.7642ZM3.4375 10.0833C3.4375 6.4185 6.4185 3.4375 10.0833 3.4375C13.7482 3.4375 16.7292 6.4185 16.7292 10.0833C16.7292 13.7482 13.7482 16.7292 10.0833 16.7292C6.4185 16.7292 3.4375 13.7482 3.4375 10.0833Z"
    fill="black" fill-opacity="0.2" />
</svg>