<svg width="19" height="20" viewBox="0 0 19 20" fill="none" xmlns="http://www.w3.org/2000/svg">
<path fill-rule="evenodd" clip-rule="evenodd" d="M1.36884 13.542C1.0557 13.1842 0.547997 13.1842 0.234856 13.542C-0.0782851 13.8999 -0.078285 14.4802 0.234856 14.838L4.51673 19.7316C4.70037 19.9415 4.95093 20.0283 5.18992 19.992C5.38064 19.9634 5.55027 19.8583 5.6744 19.7045L9.93258 14.838C10.2457 14.4802 10.2457 13.8999 9.93258 13.542C9.61944 13.1842 9.11174 13.1842 8.7986 13.542L5.8867 16.8699L5.8867 7.90331C5.8867 7.3972 5.5277 6.98692 5.08485 6.98692C4.642 6.98692 4.283 7.3972 4.283 7.90331L4.283 16.8725L1.36884 13.542Z" fill="currentColor"/>
<path fill-rule="evenodd" clip-rule="evenodd" d="M1.36884 13.542C1.0557 13.1842 0.547997 13.1842 0.234856 13.542C-0.0782851 13.8999 -0.078285 14.4802 0.234856 14.838L4.51673 19.7316C4.70037 19.9415 4.95093 20.0283 5.18992 19.992C5.38064 19.9634 5.55027 19.8583 5.6744 19.7045L9.93258 14.838C10.2457 14.4802 10.2457 13.8999 9.93258 13.542C9.61944 13.1842 9.11174 13.1842 8.7986 13.542L5.8867 16.8699L5.8867 7.90331C5.8867 7.3972 5.5277 6.98692 5.08485 6.98692C4.642 6.98692 4.283 7.3972 4.283 7.90331L4.283 16.8725L1.36884 13.542Z" fill="currentColor" fill-opacity="0.2"/>
<path fill-rule="evenodd" clip-rule="evenodd" d="M1.36884 13.542C1.0557 13.1842 0.547997 13.1842 0.234856 13.542C-0.0782851 13.8999 -0.078285 14.4802 0.234856 14.838L4.51673 19.7316C4.70037 19.9415 4.95093 20.0283 5.18992 19.992C5.38064 19.9634 5.55027 19.8583 5.6744 19.7045L9.93258 14.838C10.2457 14.4802 10.2457 13.8999 9.93258 13.542C9.61944 13.1842 9.11174 13.1842 8.7986 13.542L5.8867 16.8699L5.8867 7.90331C5.8867 7.3972 5.5277 6.98692 5.08485 6.98692C4.642 6.98692 4.283 7.3972 4.283 7.90331L4.283 16.8725L1.36884 13.542Z" fill="currentColor" fill-opacity="0.2"/>
<path fill-rule="evenodd" clip-rule="evenodd" d="M1.36884 13.542C1.0557 13.1842 0.547997 13.1842 0.234856 13.542C-0.0782851 13.8999 -0.078285 14.4802 0.234856 14.838L4.51673 19.7316C4.70037 19.9415 4.95093 20.0283 5.18992 19.992C5.38064 19.9634 5.55027 19.8583 5.6744 19.7045L9.93258 14.838C10.2457 14.4802 10.2457 13.8999 9.93258 13.542C9.61944 13.1842 9.11174 13.1842 8.7986 13.542L5.8867 16.8699L5.8867 7.90331C5.8867 7.3972 5.5277 6.98692 5.08485 6.98692C4.642 6.98692 4.283 7.3972 4.283 7.90331L4.283 16.8725L1.36884 13.542Z" fill="currentColor" fill-opacity="0.2"/>
<path fill-rule="evenodd" clip-rule="evenodd" d="M8.80179 5.15213C8.48836 5.50967 8.48788 6.0899 8.80073 6.44811C9.11358 6.80632 9.62128 6.80687 9.93472 6.44933L12.8476 3.12657L12.8476 12.0892C12.8476 12.5953 13.2066 13.0056 13.6494 13.0056C14.0923 13.0056 14.4513 12.5953 14.4513 12.0892L14.4513 3.12791L17.357 6.44872C17.6701 6.8066 18.1778 6.8066 18.491 6.44872C18.8041 6.09085 18.8041 5.51061 18.491 5.15274L14.2171 0.268333C13.9042 -0.0893052 13.3969 -0.0895769 13.0837 0.267727L8.80179 5.15213Z" fill="currentColor"/>
<path fill-rule="evenodd" clip-rule="evenodd" d="M8.80179 5.15213C8.48836 5.50967 8.48788 6.0899 8.80073 6.44811C9.11358 6.80632 9.62128 6.80687 9.93472 6.44933L12.8476 3.12657L12.8476 12.0892C12.8476 12.5953 13.2066 13.0056 13.6494 13.0056C14.0923 13.0056 14.4513 12.5953 14.4513 12.0892L14.4513 3.12791L17.357 6.44872C17.6701 6.8066 18.1778 6.8066 18.491 6.44872C18.8041 6.09085 18.8041 5.51061 18.491 5.15274L14.2171 0.268333C13.9042 -0.0893052 13.3969 -0.0895769 13.0837 0.267727L8.80179 5.15213Z" fill="currentColor" fill-opacity="0.2"/>
<path fill-rule="evenodd" clip-rule="evenodd" d="M8.80179 5.15213C8.48836 5.50967 8.48788 6.0899 8.80073 6.44811C9.11358 6.80632 9.62128 6.80687 9.93472 6.44933L12.8476 3.12657L12.8476 12.0892C12.8476 12.5953 13.2066 13.0056 13.6494 13.0056C14.0923 13.0056 14.4513 12.5953 14.4513 12.0892L14.4513 3.12791L17.357 6.44872C17.6701 6.8066 18.1778 6.8066 18.491 6.44872C18.8041 6.09085 18.8041 5.51061 18.491 5.15274L14.2171 0.268333C13.9042 -0.0893052 13.3969 -0.0895769 13.0837 0.267727L8.80179 5.15213Z" fill="currentColor" fill-opacity="0.2"/>
<path fill-rule="evenodd" clip-rule="evenodd" d="M8.80179 5.15213C8.48836 5.50967 8.48788 6.0899 8.80073 6.44811C9.11358 6.80632 9.62128 6.80687 9.93472 6.44933L12.8476 3.12657L12.8476 12.0892C12.8476 12.5953 13.2066 13.0056 13.6494 13.0056C14.0923 13.0056 14.4513 12.5953 14.4513 12.0892L14.4513 3.12791L17.357 6.44872C17.6701 6.8066 18.1778 6.8066 18.491 6.44872C18.8041 6.09085 18.8041 5.51061 18.491 5.15274L14.2171 0.268333C13.9042 -0.0893052 13.3969 -0.0895769 13.0837 0.267727L8.80179 5.15213Z" fill="currentColor" fill-opacity="0.2"/>
</svg>