<svg viewBox="0 0 20 21" fill="none" xmlns="http://www.w3.org/2000/svg">
<path d="M10 5.75C7.381 5.75 5.25 7.881 5.25 10.5C5.25 13.119 7.381 15.25 10 15.25C12.619 15.25 14.75 13.119 14.75 10.5C14.75 7.881 12.619 5.75 10 5.75ZM10 13.75C8.208 13.75 6.75 12.292 6.75 10.5C6.75 8.708 8.208 7.25 10 7.25C11.792 7.25 13.25 8.708 13.25 10.5C13.25 12.292 11.792 13.75 10 13.75ZM9.25 3.5V1.5C9.25 1.086 9.586 0.75 10 0.75C10.414 0.75 10.75 1.086 10.75 1.5V3.5C10.75 3.914 10.414 4.25 10 4.25C9.586 4.25 9.25 3.914 9.25 3.5ZM10.75 17.5V19.5C10.75 19.914 10.414 20.25 10 20.25C9.586 20.25 9.25 19.914 9.25 19.5V17.5C9.25 17.086 9.586 16.75 10 16.75C10.414 16.75 10.75 17.086 10.75 17.5ZM3 11.25H1C0.586 11.25 0.25 10.914 0.25 10.5C0.25 10.086 0.586 9.75 1 9.75H3C3.414 9.75 3.75 10.086 3.75 10.5C3.75 10.914 3.414 11.25 3 11.25ZM19.75 10.5C19.75 10.914 19.414 11.25 19 11.25H17C16.586 11.25 16.25 10.914 16.25 10.5C16.25 10.086 16.586 9.75 17 9.75H19C19.414 9.75 19.75 10.086 19.75 10.5ZM3.10599 4.66599C2.81299 4.37299 2.81299 3.89801 3.10599 3.60501C3.39899 3.31201 3.87399 3.31201 4.16699 3.60501L5.58099 5.01901C5.87399 5.31201 5.87399 5.78699 5.58099 6.07999C5.43499 6.22599 5.24299 6.29999 5.05099 6.29999C4.85899 6.29999 4.667 6.22699 4.521 6.07999L3.10599 4.66599ZM16.894 16.334C17.187 16.627 17.187 17.102 16.894 17.395C16.748 17.541 16.556 17.615 16.364 17.615C16.172 17.615 15.98 17.542 15.834 17.395L14.42 15.981C14.127 15.688 14.127 15.213 14.42 14.92C14.713 14.627 15.188 14.627 15.481 14.92L16.894 16.334ZM5.58099 14.919C5.87399 15.212 5.87399 15.687 5.58099 15.98L4.16699 17.394C4.02099 17.54 3.82899 17.614 3.63699 17.614C3.44499 17.614 3.25299 17.541 3.10699 17.394C2.81399 17.101 2.81399 16.626 3.10699 16.333L4.521 14.919C4.813 14.626 5.28799 14.626 5.58099 14.919ZM14.419 6.08099C14.126 5.78799 14.126 5.31299 14.419 5.01999L15.833 3.60599C16.126 3.31299 16.601 3.31299 16.894 3.60599C17.187 3.89899 17.187 4.37399 16.894 4.66699L15.48 6.08099C15.334 6.22699 15.142 6.30099 14.95 6.30099C14.758 6.30099 14.566 6.22699 14.419 6.08099Z" fill="#3F3F46"/>
</svg>
