<svg width="22" height="13" fill="#7dd3a1" viewBox="0 0 22 13" xmlns="http://www.w3.org/2000/svg"><path fill-rule="evenodd" clip-rule="evenodd" d="M10.9969 2.80039C15.2425 2.80039 18.7346 6.02706 19.1546 10.1618C19.2065 10.6735 19.62 11.1004 20.1469 11.1004C20.6692 11.1004 21.1057 10.674 21.061 10.1423C20.6254 4.96582 16.286 0.900391 10.9969 0.900391C5.70783 0.900391 1.36839 4.96582 0.932847 10.1423C0.888116 10.674 1.32461 11.1004 1.84691 11.1004C2.37386 11.1004 2.78728 10.6735 2.83925 10.1618C3.25917 6.02706 6.75129 2.80039 10.9969 2.80039Z"></path><path fill-rule="evenodd" clip-rule="evenodd" d="M10.9969 4.90039C7.92037 4.90039 5.37594 7.17785 4.95729 10.1388C4.88171 10.6734 5.32669 11.1004 5.84691 11.1004C6.37535 11.1004 6.77929 10.6703 6.87792 10.1752C7.26128 8.25073 8.95983 6.80039 10.9969 6.80039C13.034 6.80039 14.7325 8.25073 15.1159 10.1752C15.2145 10.6703 15.6185 11.1004 16.1469 11.1004C16.6671 11.1004 17.1121 10.6734 17.0365 10.1388C16.6179 7.17786 14.0734 4.90039 10.9969 4.90039Z"></path><path d="M12.9971 11.0005C12.9971 12.1051 12.1016 13.0005 10.9971 13.0005C9.8925 13.0005 8.99707 12.1051 8.99707 11.0005C8.99707 9.89592 9.8925 9.00049 10.9971 9.00049C12.1016 9.00049 12.9971 9.89592 12.9971 11.0005Z"></path></svg>