<svg xmlns="http://www.w3.org/2000/svg" width="25" height="24" viewBox="0 0 25 24" fill="none">
  <path
    d="M18.0649 14.296C17.8739 14.296 17.6819 14.223 17.5359 14.078C17.2429 13.786 17.2409 13.311 17.5339 13.017L19.501 11.039C20.309 10.241 20.75 9.17101 20.75 8.02301C20.75 6.87701 20.3069 5.80299 19.5029 4.99799C17.8389 3.33299 15.1289 3.33299 13.4629 4.99799L11.4961 6.97501C11.2041 7.26901 10.7291 7.27 10.4351 6.978C10.1421 6.686 10.1399 6.21099 10.4319 5.91699L12.4009 3.939C14.6529 1.687 18.313 1.68899 20.563 3.93799C21.651 5.02499 22.25 6.47601 22.25 8.02301C22.25 9.57501 21.65 11.023 20.561 12.101L18.5979 14.075C18.4499 14.223 18.2579 14.296 18.0649 14.296ZM12.5991 20.063L14.5779 18.095C14.8709 17.803 14.8731 17.328 14.5801 17.034C14.2881 16.74 13.813 16.74 13.519 17.031L11.54 19.001C9.87604 20.666 7.166 20.666 5.5 19.001C3.835 17.336 3.83502 14.627 5.49902 12.963L7.47803 10.995C7.77103 10.703 7.77298 10.228 7.47998 9.93399C7.18798 9.63999 6.71295 9.64 6.41895 9.931L4.43994 11.901C2.18994 14.151 2.18994 17.811 4.43994 20.061C5.56594 21.186 7.044 21.748 8.521 21.748C9.998 21.748 11.4751 21.187 12.5991 20.063ZM22.25 17C22.25 16.586 21.914 16.25 21.5 16.25H19.5C19.086 16.25 18.75 16.586 18.75 17C18.75 17.414 19.086 17.75 19.5 17.75H21.5C21.914 17.75 22.25 17.414 22.25 17ZM18.25 21V19C18.25 18.586 17.914 18.25 17.5 18.25C17.086 18.25 16.75 18.586 16.75 19V21C16.75 21.414 17.086 21.75 17.5 21.75C17.914 21.75 18.25 21.414 18.25 21ZM6.25 7C6.25 6.586 5.914 6.25 5.5 6.25H3.5C3.086 6.25 2.75 6.586 2.75 7C2.75 7.414 3.086 7.75 3.5 7.75H5.5C5.914 7.75 6.25 7.414 6.25 7ZM8.25 5V3C8.25 2.586 7.914 2.25 7.5 2.25C7.086 2.25 6.75 2.586 6.75 3V5C6.75 5.414 7.086 5.75 7.5 5.75C7.914 5.75 8.25 5.414 8.25 5Z"
    fill="white" />
</svg>