<svg xmlns="http://www.w3.org/2000/svg" width="22" height="22" viewBox="0 0 22 22" fill="none">
  <path
    d="M19.0207 3.66675V8.25008C19.0207 8.62958 18.7127 8.93758 18.3332 8.93758C17.9537 8.93758 17.6457 8.62958 17.6457 8.25008V5.32686L10.569 12.4035C10.4352 12.5373 10.2592 12.6051 10.0832 12.6051C9.90717 12.6051 9.73114 12.5383 9.59731 12.4035C9.32873 12.1349 9.32873 11.6995 9.59731 11.4309L16.674 4.35425H13.7498C13.3703 4.35425 13.0623 4.04625 13.0623 3.66675C13.0623 3.28725 13.3703 2.97925 13.7498 2.97925H18.3332C18.423 2.97925 18.512 2.99768 18.5964 3.03251C18.7641 3.10218 18.8979 3.23602 18.9685 3.40468C19.0024 3.4881 19.0207 3.57691 19.0207 3.66675ZM18.3332 11.2292C17.9537 11.2292 17.6457 11.5372 17.6457 11.9167V15.5834C17.6457 17.029 17.0288 17.6459 15.5832 17.6459H6.4165C4.97092 17.6459 4.354 17.029 4.354 15.5834V6.41675C4.354 4.97116 4.97092 4.35425 6.4165 4.35425H10.0832C10.4627 4.35425 10.7707 4.04625 10.7707 3.66675C10.7707 3.28725 10.4627 2.97925 10.0832 2.97925H6.4165C4.2 2.97925 2.979 4.20025 2.979 6.41675V15.5834C2.979 17.7999 4.2 19.0209 6.4165 19.0209H15.5832C17.7997 19.0209 19.0207 17.7999 19.0207 15.5834V11.9167C19.0207 11.5372 18.7127 11.2292 18.3332 11.2292Z"
    fill="#F46F4E" />
</svg>