<svg xmlns="http://www.w3.org/2000/svg" width="24" height="25" viewBox="0 0 24 25" fill="none">
  <path
    d="M21 7.25H3C2.586 7.25 2.25 6.914 2.25 6.5C2.25 6.086 2.586 5.75 3 5.75H21C21.414 5.75 21.75 6.086 21.75 6.5C21.75 6.914 21.414 7.25 21 7.25ZM21.75 12.5C21.75 12.086 21.414 11.75 21 11.75H3C2.586 11.75 2.25 12.086 2.25 12.5C2.25 12.914 2.586 13.25 3 13.25H21C21.414 13.25 21.75 12.914 21.75 12.5ZM21.75 18.5C21.75 18.086 21.414 17.75 21 17.75H12C11.586 17.75 11.25 18.086 11.25 18.5C11.25 18.914 11.586 19.25 12 19.25H21C21.414 19.25 21.75 18.914 21.75 18.5Z"
    fill="#F46F4E" />
</svg>