<svg xmlns="http://www.w3.org/2000/svg" width="40" height="40" viewBox="0 0 40 40" fill="none">
  <g style="mix-blend-mode:luminosity">
    <g clip-path="url(#clip0_4901_22150)">
      <path d="M40 0H0V40H40V0Z" fill="#594AF1" />
      <path
        d="M20 9C22.015 9 23.7728 9.38216 25.2733 10.1465C26.7738 10.9108 27.9314 12.0469 28.746 13.5549C29.582 15.0423 30 16.8498 30 18.9775V31H25.8199V25.4225H14.1158V31H10V18.9775C10 16.8498 10.4073 15.0423 11.2219 13.5549C12.0579 12.0469 13.2262 10.9108 14.7267 10.1465C16.2272 9.38216 17.985 9 20 9ZM25.8199 22.0451V18.6056C25.8199 16.6019 25.3055 15.0939 24.2765 14.0817C23.2476 13.0488 21.8114 12.5324 19.9678 12.5324C18.1243 12.5324 16.6881 13.0488 15.6592 14.0817C14.6302 15.0939 14.1158 16.6019 14.1158 18.6056V22.0451H25.8199Z"
        fill="white" />
    </g>
  </g>
  <defs>
    <clipPath id="clip0_4901_22150">
      <rect width="40" height="40" rx="20" fill="white" />
    </clipPath>
  </defs>
</svg>