<svg xmlns="http://www.w3.org/2000/svg" width="89" height="25" viewBox="0 0 89 25" fill="none">
  <mask id="mask0_5994_129" style="mask-type:luminance" maskUnits="userSpaceOnUse" x="0" y="0" width="89" height="25">
    <path d="M0 0H88.0104V25H0V0Z" fill="white" />
  </mask>
  <g mask="url(#mask0_5994_129)">
    <path
      d="M13.6819 24.9484C13.2216 24.9618 12.7737 24.7985 12.4298 24.4919C12.086 24.1854 11.8722 23.7588 11.8324 23.2996L11.6243 21.6667C9.64208 21.1012 8.48242 19.6329 8.18117 17.3016L6.39712 3.54367C6.01442 3.48203 5.62705 3.45414 5.23948 3.46034C4.66582 3.45564 4.09423 3.52974 3.54069 3.68057V24.5456H0.0400391V7.77384C0.0400391 5.49803 1.0609 3.89089 2.92025 3.22224V2.14089C2.92025 0.890894 3.67945 0.0516064 4.80735 0.0516064C5.93525 0.0516064 6.64291 0.753985 6.82528 2.03573L6.96402 3.03772C8.99978 3.60716 10.1892 5.24407 10.542 7.90079L12.1912 21.1627C13.1766 21.3532 14.1892 21.3532 15.1745 21.1627L16.8237 7.9028C17.1687 5.24407 18.3719 3.60716 20.4017 3.03176L20.5405 2.02978C20.7228 0.753984 21.4404 0.0456543 22.5584 0.0456543C23.6764 0.0456543 24.4455 0.884943 24.4455 2.13494V3.21629C26.3049 3.88494 27.3257 5.49208 27.3257 7.76787V24.5397H23.8211V3.67859C23.2676 3.52776 22.696 3.45365 22.1223 3.45835C21.7347 3.45216 21.3474 3.48004 20.9646 3.54169L19.1806 17.3016C18.8853 19.5913 17.6979 21.0952 15.7375 21.6667L15.5412 23.3016C15.5106 23.7659 15.2981 24.1994 14.9499 24.5078C14.6018 24.8162 14.1461 24.9745 13.6819 24.9484ZM12.2725 21.8254L12.4529 23.2322C12.4718 23.5406 12.6115 23.8292 12.8415 24.0354C13.0715 24.2415 13.3735 24.3486 13.6819 24.3334C13.8353 24.3444 13.9894 24.3245 14.135 24.2748C14.2806 24.2252 14.4148 24.1468 14.5296 24.0443C14.6444 23.9418 14.7374 23.8172 14.8033 23.6781C14.8691 23.5389 14.9064 23.388 14.9128 23.2341L15.0933 21.8254C14.1592 21.9788 13.2065 21.9788 12.2725 21.8254ZM24.4455 23.9306H26.7013V7.77384C26.7013 5.84525 25.9242 4.51391 24.4455 3.89287V23.9306ZM0.658501 23.9306H2.92025V3.89287C1.44348 4.51391 0.674359 5.84525 0.674359 7.77384L0.658501 23.9306ZM7.05325 3.7143L8.80159 17.2202C9.05138 19.1746 9.97312 20.4385 11.5391 20.9901L9.92353 7.97822C9.62617 5.68454 8.68464 4.28375 7.05325 3.7143ZM20.3125 3.7143C18.6811 4.28375 17.7356 5.68455 17.4422 7.98016L15.8267 20.9822C17.3946 20.4306 18.3144 19.1667 18.5642 17.2123L20.3125 3.7143ZM3.54466 3.02383C4.1007 2.88849 4.67121 2.82185 5.24345 2.82541C5.6013 2.82164 5.95897 2.84285 6.31386 2.88891L6.20682 2.10914C6.07005 1.1528 5.59827 0.66867 4.80735 0.66867C4.01643 0.66867 3.54466 1.23018 3.54466 2.13296V3.02383ZM22.1223 2.82541C22.6945 2.82185 23.2651 2.88849 23.8211 3.02383V2.14089C23.8211 1.23812 23.3374 0.676607 22.5584 0.676607C21.7794 0.676607 21.2957 1.16073 21.159 2.11708L21.0519 2.89685C21.4068 2.85078 21.7644 2.82957 22.1223 2.83335V2.82541Z"
      fill="#2D2D2D" />
    <path d="M36.989 24.5456H33.5498V0.454346H36.989V24.5456ZM34.1742 23.9206H36.3646V1.07935H34.1742V23.9206Z"
      fill="#2D2D2D" />
    <path
      d="M59.3013 24.9483C57.8087 24.9483 57.4678 23.5853 57.3567 23.1368L57.099 21.994C54.8651 21.5972 53.5012 20.1547 52.9363 17.5972L49.6993 3.52572C49.3291 3.47931 48.9564 3.45678 48.5833 3.45826C47.9637 3.44821 47.3462 3.53183 46.7517 3.70628V24.5396H43.2471V7.67452C43.2471 5.49199 44.2382 3.97413 46.1273 3.26382V2.1408C46.1273 0.890799 46.8845 0.0515137 48.0124 0.0515137C48.9857 0.0515137 49.7012 0.670561 49.9273 1.70628L50.2147 2.97612C52.3951 3.37295 53.7035 4.77374 54.312 7.37097L57.6124 21.4444C57.984 21.4907 58.358 21.5133 58.7324 21.5118C59.3494 21.5166 59.9644 21.4413 60.562 21.2876V0.454292H64.0667V17.8571C64.0667 19.6428 63.022 21.0436 61.1865 21.7321V22.8174C61.1865 24.1349 60.4649 24.9483 59.3013 24.9483ZM57.7631 22.0932L57.9613 22.992C58.1972 23.9365 58.5858 24.3233 59.2994 24.3233C60.0922 24.3233 60.5601 23.7777 60.5601 22.8254V21.9285C59.96 22.0659 59.346 22.1325 58.7304 22.127C58.4074 22.1276 58.0845 22.1118 57.7631 22.0793V22.0892V22.0932ZM43.8714 23.9206H46.1273V3.93445C44.6287 4.58327 43.8714 5.83922 43.8714 7.67257V23.9206ZM50.3673 3.64279L53.5389 17.4583C54.0305 19.6706 55.1247 20.9106 56.9405 21.3254L53.7054 7.50986C53.1781 5.2658 52.1415 4.0535 50.3673 3.64279ZM61.1865 1.07929V21.0674C62.6453 20.4483 63.4422 19.3233 63.4422 17.865V1.07929H61.1865ZM46.7517 3.04755C47.3498 2.8932 47.9656 2.81848 48.5833 2.82533C48.9063 2.82456 49.2292 2.84046 49.5506 2.87295V2.86302L49.3167 1.83326C49.2216 1.39675 48.9203 0.668577 48.0124 0.668577C47.1045 0.668577 46.7517 1.42453 46.7517 2.13286V3.04755Z"
      fill="#2D2D2D" />
    <path
      d="M88.1314 24.5457H84.464L82.6564 17.3711H72.4911L70.7168 24.5457H67.0498L71.7793 7.12112C72.3265 5.13103 73.5772 3.76992 75.405 3.17468L75.7321 1.80563C75.93 1.05166 76.3265 0.0576172 77.5772 0.0576172C78.8286 0.0576172 79.2265 1.04968 79.421 1.79968L79.7439 3.17468C81.5675 3.76992 82.8189 5.13698 83.3675 7.12508L88.1314 24.5457ZM84.9495 23.9207H87.3127L82.7654 7.28577C82.3154 5.65286 81.3397 4.49413 79.9286 3.91277L82.739 15.0258H72.4515L75.2265 3.90286C73.8133 4.49809 72.8377 5.65087 72.3883 7.27584L67.8724 23.9207H70.2356L72.0092 16.7461H83.1356L84.9495 23.9207ZM73.2543 14.3969H81.9328L79.2286 3.66277C78.1453 3.38697 77.0099 3.38697 75.9265 3.66277L73.2543 14.3969ZM76.0988 2.96039V2.9842C77.0752 2.7838 78.0821 2.7838 79.0585 2.9842V2.95841L78.8161 1.94055C78.5807 1.02984 78.2335 0.672696 77.5793 0.672696C76.9252 0.672696 76.5786 1.02984 76.3404 1.94651L76.0988 2.95841V2.96039Z"
      fill="#2D2D2D" />
  </g>
</svg>